<?xml version="1.0" encoding="UTF-8" standalone="no"?>
<svg
   width="16"
   height="15.605283"
   fill="currentColor"
   class="bi bi-github"
   viewBox="0 0 16 15.605283"
   version="1.1"
   id="svg4"
   sodipodi:docname="github.svg"
   xmlns:inkscape="http://www.inkscape.org/namespaces/inkscape"
   xmlns:sodipodi="http://sodipodi.sourceforge.net/DTD/sodipodi-0.dtd"
   xmlns="http://www.w3.org/2000/svg"
   xmlns:svg="http://www.w3.org/2000/svg">
  <defs
     id="defs8" />
  <sodipodi:namedview
     id="namedview6"
     pagecolor="#505050"
     bordercolor="#eeeeee"
     borderopacity="1"
     inkscape:showpageshadow="0"
     inkscape:pageopacity="0"
     inkscape:pagecheckerboard="0"
     inkscape:deskcolor="#505050"
     showgrid="false" />
  <path
     d="M 8,0 C 3.58,0 0,3.58 0,8 c 0,3.54 2.29,6.53 5.47,7.59 0.4,0.07 0.55,-0.17 0.55,-0.38 0,-0.19 -0.01,-0.82 -0.01,-1.49 C 4,14.09 3.48,13.23 3.32,12.78 3.23,12.55 2.84,11.84 2.5,11.65 2.22,11.5 1.82,11.13 2.49,11.12 3.12,11.11 3.57,11.7 3.72,11.94 4.44,13.15 5.59,12.81 6.05,12.6 6.12,12.08 6.33,11.73 6.56,11.53 4.78,11.33 2.92,10.64 2.92,7.58 2.92,6.71 3.23,5.99 3.74,5.43 3.66,5.23 3.38,4.41 3.82,3.31 c 0,0 0.67,-0.21 2.2,0.82 0.64,-0.18 1.32,-0.27 2,-0.27 0.68,0 1.36,0.09 2,0.27 1.53,-1.04 2.2,-0.82 2.2,-0.82 0.44,1.1 0.16,1.92 0.08,2.12 0.51,0.56 0.82,1.27 0.82,2.15 0,3.07 -1.87,3.75 -3.65,3.95 0.29,0.25 0.54,0.73 0.54,1.48 0,1.07 -0.01,1.93 -0.01,2.2 0,0.21 0.15,0.46 0.55,0.38 A 8.012,8.012 0 0 0 16,8 C 16,3.58 12.42,0 8,0 Z"
     id="path2" />
  <path
     style="fill:#e6e6e6;stroke-width:0.0287253"
     d="M 5.1992819,15.480076 C 4.7772346,15.32061 3.9888405,14.916232 3.6193896,14.669727 1.9048047,13.525722 0.72327012,11.850982 0.24191569,9.8824009 0.07753035,9.2101191 0.03295177,8.8095368 0.03243369,8 0.03189364,7.1561301 0.07973883,6.7571278 0.27168379,6.0047874 0.98627329,3.2039092 3.2037578,0.98631187 6.0043967,0.27178351 c 2.7629245,-0.70490633 5.6426213,0.0830484 7.6436143,2.09147769 1.222522,1.2270658 1.985663,2.7465496 2.255444,4.4907947 0.08472,0.5477518 0.09235,1.6299496 0.01538,2.1800554 -0.378809,2.7071237 -2.027051,4.9854777 -4.457432,6.1614787 -0.490905,0.237537 -0.899801,0.38792 -1.054401,0.387786 -0.13854,-1.15e-4 -0.286297,-0.0765 -0.344124,-0.177889 -0.02918,-0.05116 -0.04123,-0.391885 -0.05315,-1.502435 C 9.994649,12.497252 9.992905,12.462521 9.927498,12.265709 9.842078,12.00868 9.7725409,11.870689 9.6367615,11.688767 L 9.5277461,11.542704 9.9094748,11.480068 C 10.889039,11.319332 11.563873,11.024095 12.089954,10.526115 12.719336,9.9303532 13.024068,9.1847854 13.117081,8.0131171 13.194484,7.038078 12.969099,6.2128353 12.456308,5.5937066 L 12.31996,5.4290844 12.373014,5.2567325 c 0.0871,-0.2829478 0.121969,-0.7112026 0.08453,-1.0381369 -0.03387,-0.2957914 -0.113222,-0.636434 -0.192382,-0.8258898 l -0.04644,-0.1111503 -0.278121,0.01402 C 11.731557,3.3061136 11.594697,3.3323137 11.389587,3.40106 11.063499,3.510354 10.590015,3.7434755 10.262859,3.9558081 L 10.025135,4.1100972 9.8096948,4.0584391 C 8.673006,3.7858838 7.2902394,3.7870883 6.2297221,4.0615578 L 6.0249741,4.1145479 5.8027708,3.9713548 C 5.1822248,3.5714594 4.5423187,3.3188866 4.0914482,3.2958908 L 3.8166486,3.2818752 3.768808,3.4075444 C 3.6232816,3.7898166 3.5940068,3.9746585 3.5942245,4.5098743 c 1.723e-4,0.4419993 0.00894,0.5458494 0.060337,0.715412 L 3.7146873,5.4236427 3.5748496,5.6060892 C 3.2508605,6.0287989 3.0438538,6.4956243 2.9549354,7.004073 c -0.069186,0.395615 -0.039583,1.2605141 0.059317,1.7330527 0.1583043,0.7563706 0.4247733,1.2843633 0.8758448,1.7354343 0.5621323,0.562132 1.2157588,0.839505 2.4793287,1.052126 l 0.1360325,0.02289 -0.1038262,0.129264 c -0.142826,0.177819 -0.2593083,0.432194 -0.3185224,0.695591 l -0.049823,0.221623 -0.1584747,0.05713 C 5.6220326,12.742314 5.5025043,12.76781 5.2423698,12.78609 4.6408916,12.828356 4.1524725,12.559841 3.7609255,11.971643 3.3629277,11.373755 2.8740912,11.063006 2.407339,11.111179 c -0.1807468,0.01866 -0.2960284,0.08255 -0.2960284,0.164086 0,0.07499 0.174588,0.26549 0.3250227,0.354651 0.2790968,0.165417 0.5804348,0.561675 0.8439284,1.109761 0.2054569,0.427366 0.3329066,0.594764 0.5757314,0.756194 0.3938927,0.261859 0.9414722,0.368808 1.5917573,0.31089 0.1954192,-0.01741 0.3971958,-0.04002 0.4483927,-0.05026 l 0.093085,-0.01862 0.00717,0.59964 c 0.01076,0.899585 0.00812,0.963509 -0.043857,1.062554 C 5.8938241,15.51196 5.7455468,15.58435 5.58273,15.58062 5.514022,15.57902 5.3414698,15.5338 5.1992795,15.480075 Z"
     id="path321" />
</svg>
